<?xml version="1.0" encoding="UTF-8"?>
<svg xmlns="http://www.w3.org/2000/svg" xmlns:xlink="http://www.w3.org/1999/xlink" width="854" height="480" viewBox="0 0 854 480">
<defs>
<g>
<g id="glyph-0-0">
<path d="M 6.425781 2.992188 L 5.503906 2.992188 L 0.632812 -10.742188 L 1.5625 -10.742188 Z "/>
</g>
<g id="glyph-0-1">
<path d="M 4.804688 -0.304688 C 4.496094 -0.175781 4.207031 -0.0703125 3.933594 0.0195312 C 3.664062 0.105469 3.328125 0.148438 2.933594 0.148438 C 2.351562 0.148438 1.941406 0 1.703125 -0.292969 C 1.464844 -0.585938 1.347656 -1 1.347656 -1.539062 L 1.347656 -6.25 L 0.0898438 -6.25 L 0.0898438 -6.925781 L 1.375 -6.925781 L 1.375 -9.089844 L 2.660156 -9.089844 L 2.660156 -6.925781 L 4.65625 -6.925781 L 4.65625 -6.25 L 2.671875 -6.25 L 2.671875 -2.363281 C 2.671875 -2.070312 2.683594 -1.828125 2.703125 -1.632812 C 2.726562 -1.4375 2.777344 -1.265625 2.855469 -1.121094 C 2.929688 -0.984375 3.042969 -0.882812 3.195312 -0.8125 C 3.34375 -0.742188 3.546875 -0.707031 3.800781 -0.707031 C 3.917969 -0.707031 4.089844 -0.714844 4.320312 -0.738281 C 4.546875 -0.757812 4.707031 -0.785156 4.804688 -0.816406 Z "/>
</g>
<g id="glyph-0-2">
<path d="M 6.6875 -1.636719 C 6.394531 -1.082031 6.003906 -0.640625 5.515625 -0.308594 C 5.027344 0.0195312 4.464844 0.183594 3.828125 0.183594 C 3.269531 0.183594 2.78125 0.0859375 2.359375 -0.113281 C 1.9375 -0.308594 1.589844 -0.578125 1.320312 -0.917969 C 1.046875 -1.253906 0.84375 -1.648438 0.707031 -2.101562 C 0.574219 -2.554688 0.507812 -3.03125 0.507812 -3.535156 C 0.507812 -3.984375 0.578125 -4.429688 0.722656 -4.863281 C 0.867188 -5.296875 1.078125 -5.6875 1.355469 -6.039062 C 1.621094 -6.371094 1.953125 -6.640625 2.351562 -6.84375 C 2.75 -7.050781 3.195312 -7.152344 3.6875 -7.152344 C 4.195312 -7.152344 4.632812 -7.070312 4.992188 -6.910156 C 5.355469 -6.75 5.648438 -6.53125 5.875 -6.253906 C 6.089844 -5.992188 6.253906 -5.683594 6.359375 -5.324219 C 6.464844 -4.96875 6.515625 -4.578125 6.515625 -4.160156 L 6.515625 -3.695312 L 1.910156 -3.695312 C 1.910156 -3.238281 1.953125 -2.824219 2.042969 -2.453125 C 2.128906 -2.078125 2.265625 -1.75 2.453125 -1.46875 C 2.636719 -1.195312 2.878906 -0.980469 3.171875 -0.820312 C 3.46875 -0.664062 3.824219 -0.585938 4.230469 -0.585938 C 4.648438 -0.585938 5.011719 -0.683594 5.3125 -0.878906 C 5.617188 -1.074219 5.910156 -1.429688 6.191406 -1.941406 L 6.6875 -1.636719 M 5.128906 -4.289062 C 5.128906 -4.550781 5.105469 -4.832031 5.058594 -5.132812 C 5.015625 -5.433594 4.945312 -5.683594 4.84375 -5.882812 C 4.738281 -6.101562 4.589844 -6.277344 4.402344 -6.410156 C 4.210938 -6.546875 3.96875 -6.617188 3.675781 -6.617188 C 3.179688 -6.617188 2.769531 -6.410156 2.445312 -6 C 2.117188 -5.589844 1.941406 -5.019531 1.910156 -4.289062 Z "/>
</g>
<g id="glyph-0-3">
<path d="M 7.207031 0 L 4.019531 0 L 4.019531 -0.464844 C 4.234375 -0.488281 4.414062 -0.511719 4.5625 -0.535156 C 4.710938 -0.558594 4.785156 -0.621094 4.785156 -0.71875 C 4.785156 -0.761719 4.761719 -0.828125 4.714844 -0.917969 C 4.667969 -1.007812 4.621094 -1.089844 4.574219 -1.164062 C 4.453125 -1.347656 4.292969 -1.59375 4.089844 -1.902344 C 3.882812 -2.210938 3.632812 -2.578125 3.335938 -3.003906 C 3.089844 -2.699219 2.867188 -2.402344 2.65625 -2.113281 C 2.449219 -1.824219 2.234375 -1.515625 2.007812 -1.191406 C 1.976562 -1.144531 1.941406 -1.085938 1.90625 -1.015625 C 1.871094 -0.945312 1.851562 -0.886719 1.851562 -0.847656 C 1.851562 -0.742188 1.921875 -0.65625 2.054688 -0.589844 C 2.1875 -0.519531 2.390625 -0.476562 2.660156 -0.453125 L 2.660156 0 L 0.0859375 0 L 0.0859375 -0.4375 C 0.402344 -0.53125 0.660156 -0.644531 0.855469 -0.78125 C 1.050781 -0.914062 1.230469 -1.078125 1.394531 -1.277344 C 1.542969 -1.464844 1.746094 -1.726562 2.007812 -2.054688 C 2.269531 -2.386719 2.605469 -2.835938 3.019531 -3.402344 C 2.78125 -3.742188 2.488281 -4.160156 2.140625 -4.65625 C 1.796875 -5.148438 1.511719 -5.5625 1.285156 -5.890625 C 1.164062 -6.066406 1.023438 -6.210938 0.863281 -6.324219 C 0.707031 -6.433594 0.484375 -6.488281 0.199219 -6.488281 L 0.199219 -6.953125 L 3.222656 -6.953125 L 3.222656 -6.488281 C 3.074219 -6.488281 2.925781 -6.480469 2.78125 -6.460938 C 2.632812 -6.441406 2.5625 -6.398438 2.5625 -6.332031 C 2.5625 -6.292969 2.574219 -6.242188 2.605469 -6.191406 C 2.632812 -6.140625 2.667969 -6.085938 2.710938 -6.023438 C 2.8125 -5.863281 2.972656 -5.617188 3.191406 -5.28125 C 3.410156 -4.949219 3.644531 -4.597656 3.898438 -4.226562 C 4.066406 -4.449219 4.257812 -4.714844 4.476562 -5.015625 C 4.695312 -5.316406 4.894531 -5.601562 5.078125 -5.875 C 5.097656 -5.90625 5.117188 -5.949219 5.136719 -6 C 5.15625 -6.046875 5.164062 -6.097656 5.164062 -6.144531 C 5.164062 -6.242188 5.082031 -6.320312 4.921875 -6.378906 C 4.757812 -6.4375 4.605469 -6.480469 4.457031 -6.503906 L 4.457031 -6.953125 L 7.023438 -6.953125 L 7.023438 -6.515625 C 6.664062 -6.421875 6.378906 -6.3125 6.179688 -6.183594 C 5.976562 -6.050781 5.804688 -5.902344 5.664062 -5.734375 C 5.507812 -5.542969 5.324219 -5.304688 5.109375 -5.019531 C 4.894531 -4.738281 4.597656 -4.34375 4.210938 -3.835938 C 4.640625 -3.234375 4.988281 -2.742188 5.253906 -2.355469 C 5.523438 -1.96875 5.792969 -1.574219 6.066406 -1.164062 C 6.203125 -0.957031 6.351562 -0.792969 6.519531 -0.671875 C 6.6875 -0.554688 6.917969 -0.484375 7.207031 -0.464844 Z "/>
</g>
<g id="glyph-0-4">
<path d="M 5.742188 2.347656 C 5.246094 2.347656 4.804688 2.316406 4.40625 2.246094 C 4.011719 2.179688 3.679688 2.050781 3.414062 1.863281 C 3.140625 1.667969 2.933594 1.410156 2.796875 1.089844 C 2.65625 0.765625 2.589844 0.339844 2.589844 -0.191406 C 2.589844 -0.472656 2.605469 -0.777344 2.640625 -1.105469 C 2.675781 -1.429688 2.695312 -1.722656 2.695312 -1.980469 C 2.695312 -2.320312 2.644531 -2.601562 2.546875 -2.824219 C 2.449219 -3.046875 2.300781 -3.226562 2.109375 -3.363281 C 1.921875 -3.5 1.6875 -3.597656 1.410156 -3.660156 C 1.132812 -3.722656 0.832031 -3.765625 0.507812 -3.789062 L 0.507812 -4.695312 C 0.835938 -4.726562 1.144531 -4.773438 1.429688 -4.839844 C 1.710938 -4.910156 1.941406 -5.007812 2.117188 -5.132812 C 2.316406 -5.28125 2.464844 -5.464844 2.554688 -5.6875 C 2.648438 -5.910156 2.695312 -6.183594 2.695312 -6.503906 C 2.695312 -6.769531 2.675781 -7.066406 2.640625 -7.390625 C 2.605469 -7.714844 2.589844 -8.019531 2.589844 -8.300781 C 2.589844 -8.789062 2.65625 -9.203125 2.796875 -9.535156 C 2.933594 -9.867188 3.140625 -10.136719 3.414062 -10.332031 C 3.679688 -10.523438 4.015625 -10.65625 4.414062 -10.730469 C 4.816406 -10.804688 5.257812 -10.839844 5.742188 -10.839844 L 5.742188 -10.261719 C 5.554688 -10.253906 5.335938 -10.226562 5.085938 -10.1875 C 4.839844 -10.148438 4.644531 -10.085938 4.496094 -10.007812 C 4.328125 -9.914062 4.191406 -9.765625 4.085938 -9.558594 C 3.980469 -9.355469 3.929688 -9.078125 3.929688 -8.730469 L 3.929688 -7.082031 C 3.929688 -6.585938 3.871094 -6.179688 3.75 -5.855469 C 3.632812 -5.53125 3.460938 -5.265625 3.230469 -5.0625 C 3.015625 -4.875 2.765625 -4.726562 2.472656 -4.617188 C 2.179688 -4.503906 1.855469 -4.417969 1.496094 -4.351562 L 1.496094 -4.132812 C 1.835938 -4.066406 2.15625 -3.980469 2.453125 -3.871094 C 2.753906 -3.765625 3.011719 -3.613281 3.230469 -3.421875 C 3.449219 -3.222656 3.621094 -2.960938 3.746094 -2.636719 C 3.867188 -2.3125 3.929688 -1.902344 3.929688 -1.402344 L 3.929688 0.238281 C 3.929688 0.574219 3.976562 0.84375 4.074219 1.050781 C 4.175781 1.257812 4.316406 1.414062 4.496094 1.523438 C 4.671875 1.621094 4.875 1.6875 5.105469 1.722656 C 5.335938 1.753906 5.550781 1.773438 5.742188 1.785156 Z "/>
</g>
<g id="glyph-0-5">
<path d="M 14.304688 -9.507812 C 14.183594 -9.503906 14.050781 -9.476562 13.894531 -9.425781 C 13.738281 -9.375 13.59375 -9.3125 13.464844 -9.230469 C 13.300781 -9.128906 13.167969 -9.011719 13.066406 -8.875 C 12.964844 -8.742188 12.875 -8.554688 12.800781 -8.316406 C 12.46875 -7.230469 12.078125 -5.960938 11.636719 -4.511719 C 11.195312 -3.058594 10.71875 -1.515625 10.207031 0.125 L 9.554688 0.125 L 7.03125 -7.582031 L 4.402344 0.125 L 3.78125 0.125 C 3.316406 -1.519531 2.832031 -3.226562 2.335938 -4.996094 C 1.835938 -6.765625 1.503906 -7.953125 1.332031 -8.554688 C 1.289062 -8.699219 1.226562 -8.828125 1.144531 -8.941406 C 1.0625 -9.054688 0.953125 -9.160156 0.8125 -9.253906 C 0.695312 -9.332031 0.554688 -9.394531 0.398438 -9.433594 C 0.242188 -9.472656 0.0976562 -9.496094 -0.0273438 -9.507812 L -0.0273438 -10.007812 L 4.050781 -10.007812 L 4.050781 -9.507812 C 3.695312 -9.488281 3.390625 -9.453125 3.136719 -9.402344 C 2.886719 -9.347656 2.761719 -9.261719 2.761719 -9.140625 C 2.761719 -9.09375 2.769531 -9.03125 2.78125 -8.953125 C 2.796875 -8.875 2.808594 -8.8125 2.816406 -8.765625 C 2.925781 -8.351562 3.117188 -7.667969 3.390625 -6.714844 C 3.667969 -5.761719 4.074219 -4.332031 4.613281 -2.425781 L 7.113281 -9.867188 L 7.800781 -9.867188 L 10.324219 -2.269531 C 10.660156 -3.4375 10.953125 -4.457031 11.199219 -5.332031 C 11.445312 -6.203125 11.648438 -6.953125 11.808594 -7.574219 C 11.921875 -8.011719 11.992188 -8.3125 12.019531 -8.472656 C 12.046875 -8.636719 12.0625 -8.773438 12.0625 -8.886719 C 12.0625 -9.046875 11.953125 -9.179688 11.734375 -9.289062 C 11.515625 -9.398438 11.160156 -9.46875 10.671875 -9.507812 L 10.671875 -10.007812 L 14.304688 -10.007812 Z "/>
</g>
<g id="glyph-0-6">
<path d="M 8.074219 0 L 4.65625 0 L 4.65625 -0.464844 C 4.761719 -0.476562 4.882812 -0.484375 5.015625 -0.492188 C 5.144531 -0.503906 5.253906 -0.523438 5.339844 -0.550781 C 5.46875 -0.59375 5.566406 -0.667969 5.632812 -0.773438 C 5.695312 -0.878906 5.726562 -1.015625 5.726562 -1.183594 L 5.726562 -4.761719 C 5.726562 -5.253906 5.609375 -5.636719 5.375 -5.902344 C 5.144531 -6.171875 4.859375 -6.304688 4.523438 -6.304688 C 4.28125 -6.304688 4.050781 -6.265625 3.84375 -6.1875 C 3.632812 -6.109375 3.445312 -6.015625 3.28125 -5.902344 C 3.121094 -5.785156 3 -5.667969 2.914062 -5.550781 C 2.828125 -5.433594 2.761719 -5.335938 2.714844 -5.253906 L 2.714844 -1.253906 C 2.714844 -1.09375 2.746094 -0.964844 2.808594 -0.859375 C 2.875 -0.757812 2.972656 -0.675781 3.101562 -0.621094 C 3.207031 -0.574219 3.3125 -0.539062 3.425781 -0.515625 C 3.535156 -0.492188 3.65625 -0.476562 3.789062 -0.464844 L 3.789062 0 L 0.378906 0 L 0.378906 -0.464844 C 0.488281 -0.476562 0.601562 -0.484375 0.71875 -0.496094 C 0.832031 -0.507812 0.933594 -0.527344 1.011719 -0.550781 C 1.140625 -0.59375 1.238281 -0.667969 1.304688 -0.773438 C 1.371094 -0.878906 1.402344 -1.015625 1.402344 -1.183594 L 1.402344 -9.289062 C 1.402344 -9.449219 1.367188 -9.609375 1.292969 -9.769531 C 1.222656 -9.925781 1.125 -10.046875 1.007812 -10.128906 C 0.925781 -10.1875 0.773438 -10.230469 0.5625 -10.257812 C 0.347656 -10.285156 0.175781 -10.300781 0.0429688 -10.3125 L 0.0429688 -10.761719 L 2.617188 -10.917969 L 2.714844 -10.8125 L 2.714844 -5.960938 L 2.742188 -5.960938 C 2.898438 -6.113281 3.039062 -6.253906 3.167969 -6.371094 C 3.292969 -6.492188 3.460938 -6.617188 3.667969 -6.75 C 3.847656 -6.863281 4.058594 -6.957031 4.300781 -7.03125 C 4.542969 -7.105469 4.816406 -7.144531 5.117188 -7.144531 C 5.738281 -7.144531 6.214844 -6.949219 6.550781 -6.554688 C 6.886719 -6.164062 7.054688 -5.597656 7.054688 -4.859375 L 7.054688 -1.242188 C 7.054688 -1.078125 7.082031 -0.945312 7.140625 -0.84375 C 7.199219 -0.742188 7.300781 -0.664062 7.4375 -0.605469 C 7.546875 -0.5625 7.644531 -0.53125 7.730469 -0.511719 C 7.820312 -0.488281 7.933594 -0.476562 8.074219 -0.464844 Z "/>
</g>
<g id="glyph-0-7">
<path d="M 7.09375 -0.125 C 6.875 -0.046875 6.679688 0.0195312 6.511719 0.0664062 C 6.347656 0.117188 6.15625 0.140625 5.945312 0.140625 C 5.578125 0.140625 5.285156 0.0546875 5.066406 -0.117188 C 4.847656 -0.289062 4.707031 -0.539062 4.648438 -0.867188 L 4.605469 -0.867188 C 4.300781 -0.527344 3.972656 -0.269531 3.621094 -0.0898438 C 3.269531 0.0859375 2.847656 0.175781 2.355469 0.175781 C 1.832031 0.175781 1.40625 0.015625 1.070312 -0.304688 C 0.730469 -0.621094 0.5625 -1.042969 0.5625 -1.558594 C 0.5625 -1.828125 0.601562 -2.066406 0.675781 -2.277344 C 0.753906 -2.488281 0.863281 -2.679688 1.015625 -2.847656 C 1.132812 -2.992188 1.289062 -3.117188 1.480469 -3.226562 C 1.675781 -3.335938 1.855469 -3.425781 2.023438 -3.492188 C 2.234375 -3.570312 2.664062 -3.71875 3.3125 -3.933594 C 3.957031 -4.152344 4.394531 -4.320312 4.621094 -4.441406 L 4.621094 -5.140625 C 4.621094 -5.203125 4.605469 -5.320312 4.582031 -5.492188 C 4.554688 -5.667969 4.5 -5.832031 4.414062 -5.988281 C 4.320312 -6.160156 4.1875 -6.3125 4.015625 -6.441406 C 3.84375 -6.570312 3.601562 -6.636719 3.285156 -6.636719 C 3.070312 -6.636719 2.871094 -6.601562 2.683594 -6.527344 C 2.496094 -6.453125 2.367188 -6.378906 2.292969 -6.296875 C 2.292969 -6.203125 2.316406 -6.066406 2.359375 -5.882812 C 2.402344 -5.699219 2.425781 -5.53125 2.425781 -5.375 C 2.425781 -5.210938 2.351562 -5.058594 2.203125 -4.921875 C 2.054688 -4.785156 1.851562 -4.71875 1.585938 -4.71875 C 1.351562 -4.71875 1.179688 -4.800781 1.070312 -4.96875 C 0.957031 -5.136719 0.902344 -5.324219 0.902344 -5.53125 C 0.902344 -5.746094 0.980469 -5.953125 1.132812 -6.148438 C 1.285156 -6.347656 1.484375 -6.523438 1.726562 -6.679688 C 1.941406 -6.8125 2.195312 -6.921875 2.496094 -7.015625 C 2.796875 -7.105469 3.089844 -7.152344 3.378906 -7.152344 C 3.773438 -7.152344 4.117188 -7.125 4.410156 -7.070312 C 4.707031 -7.015625 4.972656 -6.898438 5.210938 -6.722656 C 5.453125 -6.546875 5.632812 -6.3125 5.757812 -6.011719 C 5.882812 -5.714844 5.945312 -5.328125 5.945312 -4.859375 C 5.945312 -4.1875 5.9375 -3.589844 5.925781 -3.070312 C 5.910156 -2.550781 5.902344 -1.984375 5.902344 -1.367188 C 5.902344 -1.183594 5.933594 -1.039062 6 -0.929688 C 6.0625 -0.824219 6.160156 -0.730469 6.292969 -0.65625 C 6.363281 -0.613281 6.472656 -0.589844 6.625 -0.585938 C 6.777344 -0.582031 6.933594 -0.578125 7.09375 -0.578125 L 7.09375 -0.125 M 4.632812 -3.851562 C 4.234375 -3.734375 3.882812 -3.617188 3.582031 -3.503906 C 3.28125 -3.390625 3.003906 -3.25 2.742188 -3.082031 C 2.507812 -2.921875 2.324219 -2.730469 2.1875 -2.511719 C 2.050781 -2.292969 1.980469 -2.03125 1.980469 -1.730469 C 1.980469 -1.339844 2.085938 -1.050781 2.289062 -0.867188 C 2.492188 -0.683594 2.753906 -0.59375 3.066406 -0.59375 C 3.402344 -0.59375 3.695312 -0.671875 3.949219 -0.835938 C 4.203125 -1 4.417969 -1.191406 4.589844 -1.414062 Z "/>
</g>
<g id="glyph-0-8">
</g>
<g id="glyph-0-9">
<path d="M 3.878906 0 L 0.523438 0 L 0.523438 -0.464844 C 0.628906 -0.476562 0.742188 -0.484375 0.855469 -0.492188 C 0.972656 -0.503906 1.070312 -0.523438 1.15625 -0.550781 C 1.289062 -0.59375 1.386719 -0.667969 1.449219 -0.773438 C 1.511719 -0.878906 1.542969 -1.015625 1.542969 -1.183594 L 1.542969 -5.472656 C 1.542969 -5.625 1.511719 -5.761719 1.441406 -5.886719 C 1.375 -6.011719 1.277344 -6.113281 1.15625 -6.199219 C 1.066406 -6.257812 0.9375 -6.304688 0.769531 -6.34375 C 0.597656 -6.382812 0.445312 -6.410156 0.304688 -6.417969 L 0.304688 -6.882812 L 2.757812 -7.039062 L 2.855469 -6.941406 L 2.855469 -1.269531 C 2.855469 -1.105469 2.886719 -0.96875 2.949219 -0.859375 C 3.015625 -0.753906 3.113281 -0.671875 3.25 -0.621094 C 3.351562 -0.578125 3.453125 -0.542969 3.550781 -0.519531 C 3.648438 -0.492188 3.757812 -0.476562 3.878906 -0.464844 L 3.878906 0 M 2.996094 -9.78125 C 2.996094 -9.515625 2.910156 -9.28125 2.734375 -9.082031 C 2.554688 -8.878906 2.339844 -8.78125 2.082031 -8.78125 C 1.839844 -8.78125 1.632812 -8.875 1.457031 -9.066406 C 1.28125 -9.257812 1.191406 -9.472656 1.191406 -9.71875 C 1.191406 -9.976562 1.28125 -10.203125 1.457031 -10.394531 C 1.632812 -10.589844 1.839844 -10.683594 2.082031 -10.683594 C 2.347656 -10.683594 2.570312 -10.59375 2.738281 -10.414062 C 2.910156 -10.230469 2.996094 -10.023438 2.996094 -9.78125 Z "/>
</g>
<g id="glyph-0-10">
<path d="M 5.097656 -3.40625 C 5.292969 -3.238281 5.441406 -3.042969 5.542969 -2.820312 C 5.648438 -2.601562 5.699219 -2.328125 5.699219 -2.011719 C 5.699219 -1.367188 5.457031 -0.839844 4.976562 -0.429688 C 4.492188 -0.0195312 3.871094 0.183594 3.101562 0.183594 C 2.699219 0.183594 2.328125 0.109375 1.984375 -0.0351562 C 1.644531 -0.179688 1.402344 -0.316406 1.253906 -0.4375 L 1.113281 0.0195312 L 0.585938 0.0195312 L 0.515625 -2.398438 L 1 -2.398438 C 1.039062 -2.214844 1.117188 -2 1.242188 -1.753906 C 1.363281 -1.507812 1.511719 -1.285156 1.6875 -1.089844 C 1.867188 -0.882812 2.089844 -0.707031 2.34375 -0.566406 C 2.601562 -0.421875 2.890625 -0.351562 3.210938 -0.351562 C 3.660156 -0.351562 4.007812 -0.457031 4.253906 -0.660156 C 4.496094 -0.867188 4.621094 -1.160156 4.621094 -1.542969 C 4.621094 -1.742188 4.582031 -1.914062 4.503906 -2.054688 C 4.425781 -2.199219 4.3125 -2.324219 4.160156 -2.433594 C 4.007812 -2.542969 3.816406 -2.640625 3.589844 -2.726562 C 3.363281 -2.8125 3.113281 -2.898438 2.835938 -2.984375 C 2.613281 -3.050781 2.367188 -3.140625 2.097656 -3.253906 C 1.828125 -3.371094 1.597656 -3.503906 1.402344 -3.660156 C 1.195312 -3.824219 1.027344 -4.027344 0.894531 -4.265625 C 0.765625 -4.507812 0.699219 -4.789062 0.699219 -5.113281 C 0.699219 -5.683594 0.910156 -6.164062 1.332031 -6.558594 C 1.757812 -6.953125 2.324219 -7.152344 3.03125 -7.152344 C 3.304688 -7.152344 3.582031 -7.117188 3.867188 -7.046875 C 4.152344 -6.976562 4.382812 -6.890625 4.5625 -6.792969 L 4.726562 -7.160156 L 5.234375 -7.160156 L 5.339844 -4.921875 L 4.851562 -4.921875 C 4.753906 -5.421875 4.539062 -5.832031 4.214844 -6.144531 C 3.886719 -6.457031 3.488281 -6.617188 3.019531 -6.617188 C 2.632812 -6.617188 2.328125 -6.519531 2.109375 -6.324219 C 1.886719 -6.128906 1.777344 -5.894531 1.777344 -5.621094 C 1.777344 -5.410156 1.8125 -5.234375 1.886719 -5.09375 C 1.960938 -4.949219 2.070312 -4.832031 2.214844 -4.730469 C 2.355469 -4.636719 2.53125 -4.550781 2.746094 -4.46875 C 2.960938 -4.386719 3.226562 -4.292969 3.539062 -4.1875 C 3.851562 -4.089844 4.144531 -3.976562 4.417969 -3.84375 C 4.695312 -3.710938 4.921875 -3.566406 5.097656 -3.40625 Z "/>
</g>
<g id="glyph-0-11">
<path d="M 5.707031 -3.789062 C 5.382812 -3.765625 5.078125 -3.71875 4.800781 -3.65625 C 4.519531 -3.59375 4.289062 -3.496094 4.105469 -3.363281 C 3.910156 -3.226562 3.765625 -3.046875 3.667969 -2.824219 C 3.570312 -2.601562 3.519531 -2.320312 3.519531 -1.980469 C 3.519531 -1.722656 3.535156 -1.429688 3.570312 -1.105469 C 3.609375 -0.777344 3.625 -0.472656 3.625 -0.191406 C 3.625 0.339844 3.554688 0.765625 3.417969 1.089844 C 3.277344 1.410156 3.074219 1.667969 2.800781 1.863281 C 2.535156 2.046875 2.207031 2.171875 1.808594 2.242188 C 1.410156 2.3125 0.964844 2.347656 0.472656 2.347656 L 0.472656 1.785156 C 0.664062 1.773438 0.878906 1.753906 1.113281 1.722656 C 1.347656 1.6875 1.546875 1.621094 1.714844 1.523438 C 1.898438 1.414062 2.039062 1.257812 2.136719 1.050781 C 2.234375 0.84375 2.285156 0.574219 2.285156 0.238281 L 2.285156 -1.402344 C 2.285156 -1.902344 2.347656 -2.3125 2.46875 -2.636719 C 2.589844 -2.960938 2.761719 -3.222656 2.984375 -3.421875 C 3.203125 -3.613281 3.460938 -3.765625 3.757812 -3.871094 C 4.058594 -3.980469 4.378906 -4.066406 4.714844 -4.132812 L 4.714844 -4.351562 C 4.359375 -4.417969 4.03125 -4.503906 3.742188 -4.617188 C 3.449219 -4.726562 3.195312 -4.875 2.984375 -5.0625 C 2.753906 -5.265625 2.578125 -5.53125 2.460938 -5.855469 C 2.34375 -6.179688 2.285156 -6.585938 2.285156 -7.082031 L 2.285156 -8.730469 C 2.285156 -9.078125 2.230469 -9.355469 2.128906 -9.558594 C 2.023438 -9.765625 1.882812 -9.914062 1.714844 -10.007812 C 1.570312 -10.085938 1.375 -10.148438 1.125 -10.1875 C 0.878906 -10.226562 0.660156 -10.253906 0.472656 -10.261719 L 0.472656 -10.839844 C 0.957031 -10.839844 1.398438 -10.804688 1.796875 -10.730469 C 2.199219 -10.65625 2.53125 -10.523438 2.800781 -10.332031 C 3.074219 -10.136719 3.277344 -9.867188 3.417969 -9.535156 C 3.554688 -9.203125 3.625 -8.789062 3.625 -8.300781 C 3.625 -8.019531 3.609375 -7.714844 3.570312 -7.390625 C 3.535156 -7.066406 3.519531 -6.769531 3.519531 -6.503906 C 3.519531 -6.183594 3.566406 -5.910156 3.65625 -5.6875 C 3.75 -5.464844 3.894531 -5.28125 4.097656 -5.132812 C 4.273438 -5.011719 4.5 -4.914062 4.785156 -4.84375 C 5.070312 -4.773438 5.375 -4.726562 5.707031 -4.695312 Z "/>
</g>
<g id="glyph-0-12">
<path d="M 8.1875 0 L 4.789062 0 L 4.789062 -0.464844 C 4.898438 -0.476562 5.015625 -0.484375 5.144531 -0.492188 C 5.273438 -0.503906 5.382812 -0.523438 5.464844 -0.550781 C 5.597656 -0.59375 5.695312 -0.667969 5.757812 -0.773438 C 5.820312 -0.878906 5.855469 -1.015625 5.855469 -1.183594 L 5.855469 -4.761719 C 5.855469 -5.253906 5.738281 -5.636719 5.503906 -5.902344 C 5.269531 -6.171875 4.988281 -6.304688 4.652344 -6.304688 C 4.402344 -6.304688 4.171875 -6.265625 3.964844 -6.1875 C 3.757812 -6.109375 3.574219 -6.015625 3.414062 -5.902344 C 3.257812 -5.796875 3.136719 -5.679688 3.042969 -5.554688 C 2.953125 -5.429688 2.882812 -5.328125 2.84375 -5.253906 L 2.84375 -1.253906 C 2.84375 -1.09375 2.875 -0.964844 2.941406 -0.859375 C 3.007812 -0.757812 3.105469 -0.675781 3.238281 -0.621094 C 3.335938 -0.574219 3.441406 -0.539062 3.558594 -0.515625 C 3.671875 -0.492188 3.792969 -0.476562 3.914062 -0.464844 L 3.914062 0 L 0.507812 0 L 0.507812 -0.464844 C 0.617188 -0.476562 0.726562 -0.484375 0.84375 -0.492188 C 0.957031 -0.503906 1.058594 -0.523438 1.140625 -0.550781 C 1.273438 -0.59375 1.371094 -0.667969 1.433594 -0.773438 C 1.5 -0.878906 1.53125 -1.015625 1.53125 -1.183594 L 1.53125 -5.472656 C 1.53125 -5.632812 1.496094 -5.78125 1.429688 -5.914062 C 1.359375 -6.046875 1.265625 -6.15625 1.140625 -6.242188 C 1.054688 -6.296875 0.949219 -6.339844 0.824219 -6.363281 C 0.703125 -6.390625 0.570312 -6.410156 0.429688 -6.417969 L 0.429688 -6.882812 L 2.742188 -7.039062 L 2.84375 -6.941406 L 2.84375 -5.960938 L 2.878906 -5.960938 C 2.992188 -6.074219 3.132812 -6.207031 3.300781 -6.363281 C 3.46875 -6.523438 3.628906 -6.652344 3.78125 -6.75 C 3.953125 -6.863281 4.160156 -6.957031 4.402344 -7.03125 C 4.640625 -7.105469 4.910156 -7.144531 5.210938 -7.144531 C 5.878906 -7.144531 6.375 -6.9375 6.695312 -6.519531 C 7.019531 -6.105469 7.179688 -5.550781 7.179688 -4.859375 L 7.179688 -1.242188 C 7.179688 -1.078125 7.207031 -0.945312 7.265625 -0.84375 C 7.320312 -0.742188 7.417969 -0.664062 7.554688 -0.605469 C 7.667969 -0.558594 7.765625 -0.527344 7.847656 -0.507812 C 7.929688 -0.488281 8.042969 -0.476562 8.1875 -0.464844 Z "/>
</g>
<g id="glyph-0-13">
<path d="M 4.945312 2.3125 C 3.660156 2.152344 2.652344 1.507812 1.921875 0.375 C 1.191406 -0.757812 0.824219 -2.285156 0.824219 -4.203125 C 0.824219 -6.15625 1.191406 -7.699219 1.921875 -8.839844 C 2.652344 -9.980469 3.660156 -10.636719 4.945312 -10.804688 L 4.945312 -10.21875 C 4.042969 -10.054688 3.355469 -9.480469 2.882812 -8.492188 C 2.414062 -7.503906 2.179688 -6.070312 2.179688 -4.1875 C 2.179688 -2.398438 2.410156 -1.003906 2.871094 -0.0117188 C 3.332031 0.984375 4.023438 1.566406 4.945312 1.734375 Z "/>
</g>
<g id="glyph-0-14">
<path d="M 4.589844 -4.203125 C 4.589844 -2.285156 4.226562 -0.757812 3.496094 0.375 C 2.761719 1.507812 1.757812 2.152344 0.472656 2.3125 L 0.472656 1.734375 C 1.394531 1.566406 2.085938 0.984375 2.546875 -0.0117188 C 3.007812 -1.003906 3.238281 -2.398438 3.238281 -4.1875 C 3.238281 -6.070312 3.003906 -7.503906 2.53125 -8.492188 C 2.0625 -9.480469 1.375 -10.054688 0.472656 -10.21875 L 0.472656 -10.804688 C 1.757812 -10.636719 2.761719 -9.980469 3.496094 -8.839844 C 4.226562 -7.699219 4.589844 -6.15625 4.589844 -4.203125 Z "/>
</g>
<g id="glyph-0-15">
<path d="M 5.4375 -9.378906 C 5.695312 -9.105469 5.886719 -8.800781 6.011719 -8.457031 C 6.136719 -8.117188 6.199219 -7.746094 6.199219 -7.34375 C 6.199219 -6.476562 5.921875 -5.765625 5.367188 -5.214844 C 4.8125 -4.664062 4.050781 -4.332031 3.082031 -4.21875 L 3.082031 -2.660156 L 2.433594 -2.660156 L 2.433594 -5.332031 C 2.730469 -5.355469 3.023438 -5.402344 3.316406 -5.476562 C 3.605469 -5.550781 3.867188 -5.667969 4.097656 -5.832031 C 4.335938 -6.007812 4.523438 -6.21875 4.660156 -6.464844 C 4.792969 -6.714844 4.859375 -7.058594 4.859375 -7.5 C 4.859375 -8.207031 4.710938 -8.75 4.410156 -9.125 C 4.113281 -9.503906 3.675781 -9.691406 3.101562 -9.691406 C 2.886719 -9.691406 2.699219 -9.660156 2.535156 -9.59375 C 2.375 -9.53125 2.253906 -9.472656 2.179688 -9.414062 C 2.203125 -9.300781 2.234375 -9.140625 2.273438 -8.929688 C 2.316406 -8.71875 2.335938 -8.554688 2.335938 -8.441406 C 2.335938 -8.269531 2.257812 -8.109375 2.109375 -7.964844 C 1.957031 -7.824219 1.738281 -7.75 1.453125 -7.75 C 1.199219 -7.75 1.019531 -7.839844 0.910156 -8.011719 C 0.800781 -8.1875 0.746094 -8.386719 0.746094 -8.617188 C 0.746094 -8.804688 0.800781 -8.992188 0.902344 -9.171875 C 1.007812 -9.351562 1.167969 -9.527344 1.390625 -9.699219 C 1.578125 -9.847656 1.832031 -9.976562 2.15625 -10.085938 C 2.476562 -10.195312 2.8125 -10.246094 3.160156 -10.246094 C 3.65625 -10.246094 4.101562 -10.167969 4.484375 -10.011719 C 4.871094 -9.851562 5.1875 -9.644531 5.4375 -9.378906 M 3.746094 -0.8125 C 3.746094 -0.546875 3.648438 -0.324219 3.460938 -0.136719 C 3.269531 0.046875 3.042969 0.140625 2.777344 0.140625 C 2.515625 0.140625 2.289062 0.046875 2.097656 -0.136719 C 1.90625 -0.324219 1.8125 -0.546875 1.8125 -0.8125 C 1.8125 -1.074219 1.90625 -1.300781 2.097656 -1.492188 C 2.289062 -1.683594 2.515625 -1.777344 2.777344 -1.777344 C 3.042969 -1.777344 3.269531 -1.683594 3.460938 -1.492188 C 3.648438 -1.300781 3.746094 -1.074219 3.746094 -0.8125 Z "/>
</g>
</g>
</defs>
<g fill="rgb(100%, 100%, 100%)" fill-opacity="1">
<use xlink:href="#glyph-0-0" x="30" y="33.244141"/>
<use xlink:href="#glyph-0-1" x="37" y="33.244141"/>
<use xlink:href="#glyph-0-2" x="42" y="33.244141"/>
<use xlink:href="#glyph-0-3" x="49" y="33.244141"/>
<use xlink:href="#glyph-0-1" x="56" y="33.244141"/>
<use xlink:href="#glyph-0-4" x="61" y="33.244141"/>
<use xlink:href="#glyph-0-5" x="67" y="33.244141"/>
<use xlink:href="#glyph-0-6" x="81" y="33.244141"/>
<use xlink:href="#glyph-0-7" x="89" y="33.244141"/>
<use xlink:href="#glyph-0-1" x="96" y="33.244141"/>
<use xlink:href="#glyph-0-8" x="101" y="33.244141"/>
<use xlink:href="#glyph-0-9" x="104" y="33.244141"/>
<use xlink:href="#glyph-0-10" x="108" y="33.244141"/>
<use xlink:href="#glyph-0-8" x="114" y="33.244141"/>
<use xlink:href="#glyph-0-11" x="117" y="33.244141"/>
<use xlink:href="#glyph-0-8" x="123" y="33.244141"/>
<use xlink:href="#glyph-0-0" x="126" y="33.244141"/>
<use xlink:href="#glyph-0-10" x="133" y="33.244141"/>
<use xlink:href="#glyph-0-9" x="139" y="33.244141"/>
<use xlink:href="#glyph-0-12" x="143" y="33.244141"/>
<use xlink:href="#glyph-0-13" x="152" y="33.244141"/>
<use xlink:href="#glyph-0-3" x="157" y="33.244141"/>
<use xlink:href="#glyph-0-14" x="164" y="33.244141"/>
<use xlink:href="#glyph-0-0" x="169" y="33.244141"/>
<use xlink:href="#glyph-0-1" x="176" y="33.244141"/>
<use xlink:href="#glyph-0-2" x="181" y="33.244141"/>
<use xlink:href="#glyph-0-3" x="188" y="33.244141"/>
<use xlink:href="#glyph-0-1" x="195" y="33.244141"/>
<use xlink:href="#glyph-0-4" x="200" y="33.244141"/>
<use xlink:href="#glyph-0-15" x="206" y="33.244141"/>
<use xlink:href="#glyph-0-11" x="213" y="33.244141"/>
</g>
</svg>
