<?xml version="1.0" encoding="UTF-8"?>
<svg xmlns="http://www.w3.org/2000/svg" xmlns:xlink="http://www.w3.org/1999/xlink" width="1920" height="1080" viewBox="0 0 1920 1080">
<defs>
<g>
<g id="glyph-0-0">
<path d="M 3.53125 -2.359375 C 3.664062 -2.242188 3.765625 -2.105469 3.835938 -1.953125 C 3.910156 -1.800781 3.945312 -1.613281 3.945312 -1.390625 C 3.945312 -0.945312 3.777344 -0.582031 3.445312 -0.296875 C 3.109375 -0.015625 2.679688 0.125 2.148438 0.125 C 1.867188 0.125 1.609375 0.078125 1.375 -0.0234375 C 1.136719 -0.125 0.96875 -0.21875 0.867188 -0.304688 L 0.773438 0.015625 L 0.40625 0.015625 L 0.355469 -1.660156 L 0.695312 -1.660156 C 0.71875 -1.53125 0.773438 -1.382812 0.859375 -1.214844 C 0.945312 -1.042969 1.046875 -0.890625 1.167969 -0.753906 C 1.292969 -0.609375 1.445312 -0.488281 1.625 -0.390625 C 1.800781 -0.292969 2 -0.242188 2.222656 -0.242188 C 2.535156 -0.242188 2.773438 -0.316406 2.945312 -0.457031 C 3.113281 -0.601562 3.199219 -0.804688 3.199219 -1.070312 C 3.199219 -1.207031 3.171875 -1.324219 3.117188 -1.421875 C 3.0625 -1.523438 2.984375 -1.609375 2.882812 -1.683594 C 2.773438 -1.757812 2.640625 -1.828125 2.484375 -1.886719 C 2.328125 -1.949219 2.15625 -2.007812 1.960938 -2.066406 C 1.808594 -2.109375 1.640625 -2.171875 1.453125 -2.253906 C 1.265625 -2.332031 1.105469 -2.425781 0.972656 -2.535156 C 0.828125 -2.648438 0.710938 -2.789062 0.621094 -2.953125 C 0.527344 -3.121094 0.484375 -3.316406 0.484375 -3.539062 C 0.484375 -3.933594 0.628906 -4.265625 0.921875 -4.539062 C 1.214844 -4.8125 1.609375 -4.949219 2.101562 -4.953125 C 2.289062 -4.949219 2.480469 -4.925781 2.679688 -4.878906 C 2.875 -4.828125 3.035156 -4.769531 3.160156 -4.703125 L 3.273438 -4.957031 L 3.625 -4.957031 L 3.695312 -3.40625 L 3.359375 -3.40625 C 3.289062 -3.753906 3.144531 -4.035156 2.917969 -4.253906 C 2.691406 -4.472656 2.414062 -4.578125 2.089844 -4.578125 C 1.824219 -4.578125 1.613281 -4.511719 1.460938 -4.378906 C 1.308594 -4.242188 1.230469 -4.082031 1.230469 -3.890625 C 1.230469 -3.746094 1.253906 -3.625 1.304688 -3.523438 C 1.355469 -3.429688 1.433594 -3.34375 1.53125 -3.277344 C 1.632812 -3.210938 1.753906 -3.148438 1.902344 -3.09375 C 2.050781 -3.035156 2.234375 -2.972656 2.453125 -2.898438 C 2.664062 -2.832031 2.867188 -2.753906 3.058594 -2.660156 C 3.25 -2.570312 3.40625 -2.46875 3.53125 -2.359375 Z "/>
</g>
<g id="glyph-0-1">
<path d="M 2.6875 0 L 0.359375 0 L 0.359375 -0.320312 C 0.4375 -0.328125 0.511719 -0.335938 0.59375 -0.34375 C 0.671875 -0.347656 0.742188 -0.359375 0.800781 -0.378906 C 0.890625 -0.410156 0.960938 -0.460938 1.003906 -0.535156 C 1.046875 -0.609375 1.070312 -0.703125 1.070312 -0.820312 L 1.070312 -3.789062 C 1.070312 -3.894531 1.046875 -3.988281 1 -4.074219 C 0.953125 -4.160156 0.886719 -4.234375 0.800781 -4.292969 C 0.738281 -4.332031 0.648438 -4.363281 0.53125 -4.390625 C 0.414062 -4.417969 0.308594 -4.4375 0.210938 -4.445312 L 0.210938 -4.765625 L 1.910156 -4.875 L 1.976562 -4.804688 L 1.976562 -0.878906 C 1.976562 -0.765625 2 -0.671875 2.042969 -0.59375 C 2.085938 -0.519531 2.15625 -0.464844 2.25 -0.429688 C 2.320312 -0.398438 2.390625 -0.375 2.457031 -0.359375 C 2.527344 -0.339844 2.601562 -0.328125 2.6875 -0.320312 L 2.6875 0 M 2.074219 -6.773438 C 2.074219 -6.585938 2.015625 -6.425781 1.890625 -6.285156 C 1.769531 -6.148438 1.621094 -6.078125 1.441406 -6.078125 C 1.273438 -6.078125 1.128906 -6.144531 1.007812 -6.277344 C 0.886719 -6.410156 0.824219 -6.558594 0.824219 -6.726562 C 0.824219 -6.90625 0.886719 -7.0625 1.007812 -7.195312 C 1.128906 -7.332031 1.273438 -7.398438 1.441406 -7.398438 C 1.625 -7.398438 1.777344 -7.335938 1.898438 -7.210938 C 2.015625 -7.085938 2.074219 -6.9375 2.074219 -6.773438 Z "/>
</g>
<g id="glyph-0-2">
<path d="M 5.667969 0 L 3.316406 0 L 3.316406 -0.320312 C 3.390625 -0.328125 3.472656 -0.335938 3.5625 -0.34375 C 3.652344 -0.347656 3.726562 -0.359375 3.785156 -0.382812 C 3.875 -0.410156 3.941406 -0.460938 3.988281 -0.535156 C 4.03125 -0.609375 4.054688 -0.703125 4.054688 -0.820312 L 4.054688 -3.296875 C 4.054688 -3.636719 3.972656 -3.902344 3.808594 -4.085938 C 3.648438 -4.273438 3.453125 -4.363281 3.21875 -4.367188 C 3.046875 -4.363281 2.890625 -4.339844 2.746094 -4.285156 C 2.601562 -4.230469 2.476562 -4.164062 2.363281 -4.085938 C 2.257812 -4.011719 2.171875 -3.929688 2.105469 -3.84375 C 2.042969 -3.757812 1.996094 -3.691406 1.96875 -3.636719 L 1.96875 -0.867188 C 1.96875 -0.757812 1.992188 -0.667969 2.035156 -0.59375 C 2.082031 -0.523438 2.148438 -0.46875 2.242188 -0.429688 C 2.308594 -0.398438 2.382812 -0.371094 2.464844 -0.355469 C 2.542969 -0.339844 2.625 -0.328125 2.710938 -0.320312 L 2.710938 0 L 0.351562 0 L 0.351562 -0.320312 C 0.425781 -0.328125 0.503906 -0.335938 0.582031 -0.34375 C 0.664062 -0.347656 0.734375 -0.359375 0.789062 -0.378906 C 0.882812 -0.410156 0.949219 -0.460938 0.992188 -0.535156 C 1.039062 -0.609375 1.058594 -0.703125 1.058594 -0.820312 L 1.058594 -3.789062 C 1.058594 -3.902344 1.035156 -4.003906 0.988281 -4.09375 C 0.941406 -4.1875 0.875 -4.261719 0.789062 -4.320312 C 0.730469 -4.359375 0.65625 -4.390625 0.570312 -4.40625 C 0.488281 -4.425781 0.394531 -4.4375 0.296875 -4.445312 L 0.296875 -4.765625 L 1.898438 -4.875 L 1.96875 -4.804688 L 1.96875 -4.125 L 1.992188 -4.125 C 2.070312 -4.203125 2.167969 -4.296875 2.285156 -4.40625 C 2.402344 -4.515625 2.511719 -4.605469 2.617188 -4.671875 C 2.738281 -4.75 2.882812 -4.816406 3.046875 -4.867188 C 3.210938 -4.921875 3.398438 -4.945312 3.609375 -4.945312 C 4.070312 -4.945312 4.414062 -4.800781 4.636719 -4.515625 C 4.859375 -4.226562 4.96875 -3.84375 4.96875 -3.363281 L 4.96875 -0.859375 C 4.96875 -0.746094 4.992188 -0.652344 5.03125 -0.582031 C 5.070312 -0.511719 5.136719 -0.460938 5.230469 -0.421875 C 5.308594 -0.386719 5.375 -0.363281 5.433594 -0.351562 C 5.488281 -0.339844 5.566406 -0.328125 5.667969 -0.320312 Z "/>
</g>
<g id="glyph-0-3">
<path d="M 3.421875 1.601562 C 2.535156 1.492188 1.835938 1.042969 1.332031 0.257812 C 0.824219 -0.527344 0.570312 -1.582031 0.570312 -2.910156 C 0.570312 -4.261719 0.824219 -5.332031 1.332031 -6.121094 C 1.835938 -6.910156 2.535156 -7.363281 3.421875 -7.480469 L 3.421875 -7.074219 C 2.796875 -6.960938 2.324219 -6.5625 1.996094 -5.878906 C 1.671875 -5.195312 1.507812 -4.203125 1.507812 -2.898438 C 1.507812 -1.660156 1.667969 -0.695312 1.988281 -0.0078125 C 2.304688 0.679688 2.785156 1.082031 3.421875 1.203125 Z "/>
</g>
<g id="glyph-0-4">
<path d="M 4.992188 0 L 2.78125 0 L 2.78125 -0.320312 C 2.929688 -0.339844 3.054688 -0.355469 3.15625 -0.371094 C 3.261719 -0.386719 3.3125 -0.429688 3.3125 -0.5 C 3.3125 -0.527344 3.296875 -0.574219 3.261719 -0.632812 C 3.230469 -0.695312 3.199219 -0.753906 3.164062 -0.804688 C 3.085938 -0.933594 2.972656 -1.101562 2.832031 -1.316406 C 2.6875 -1.53125 2.515625 -1.785156 2.308594 -2.082031 C 2.140625 -1.871094 1.984375 -1.664062 1.839844 -1.460938 C 1.695312 -1.261719 1.546875 -1.050781 1.390625 -0.824219 C 1.367188 -0.792969 1.34375 -0.75 1.320312 -0.703125 C 1.296875 -0.65625 1.28125 -0.613281 1.28125 -0.585938 C 1.28125 -0.515625 1.328125 -0.453125 1.421875 -0.40625 C 1.515625 -0.359375 1.65625 -0.328125 1.839844 -0.3125 L 1.839844 0 L 0.0585938 0 L 0.0585938 -0.304688 C 0.28125 -0.367188 0.457031 -0.445312 0.59375 -0.539062 C 0.726562 -0.632812 0.851562 -0.746094 0.964844 -0.882812 C 1.066406 -1.015625 1.207031 -1.195312 1.390625 -1.421875 C 1.570312 -1.652344 1.804688 -1.960938 2.089844 -2.355469 C 1.925781 -2.589844 1.722656 -2.878906 1.484375 -3.222656 C 1.242188 -3.566406 1.046875 -3.851562 0.890625 -4.078125 C 0.804688 -4.199219 0.707031 -4.300781 0.597656 -4.378906 C 0.488281 -4.453125 0.335938 -4.492188 0.136719 -4.492188 L 0.136719 -4.8125 L 2.230469 -4.8125 L 2.230469 -4.492188 C 2.128906 -4.492188 2.023438 -4.484375 1.925781 -4.472656 C 1.824219 -4.460938 1.773438 -4.429688 1.773438 -4.382812 C 1.773438 -4.355469 1.785156 -4.324219 1.804688 -4.289062 C 1.824219 -4.25 1.847656 -4.210938 1.875 -4.171875 C 1.949219 -4.058594 2.058594 -3.886719 2.210938 -3.65625 C 2.359375 -3.425781 2.523438 -3.183594 2.699219 -2.925781 C 2.8125 -3.082031 2.945312 -3.261719 3.097656 -3.472656 C 3.25 -3.679688 3.390625 -3.878906 3.515625 -4.066406 C 3.53125 -4.089844 3.542969 -4.117188 3.554688 -4.152344 C 3.570312 -4.1875 3.574219 -4.21875 3.574219 -4.253906 C 3.574219 -4.320312 3.519531 -4.375 3.40625 -4.417969 C 3.292969 -4.457031 3.1875 -4.484375 3.085938 -4.5 L 3.085938 -4.8125 L 4.863281 -4.8125 L 4.863281 -4.511719 C 4.613281 -4.445312 4.417969 -4.371094 4.277344 -4.28125 C 4.136719 -4.191406 4.019531 -4.085938 3.921875 -3.96875 C 3.8125 -3.835938 3.6875 -3.671875 3.539062 -3.476562 C 3.390625 -3.28125 3.183594 -3.007812 2.914062 -2.65625 C 3.210938 -2.238281 3.453125 -1.898438 3.636719 -1.628906 C 3.824219 -1.363281 4.011719 -1.089844 4.199219 -0.804688 C 4.292969 -0.664062 4.398438 -0.550781 4.515625 -0.464844 C 4.628906 -0.382812 4.789062 -0.335938 4.992188 -0.320312 Z "/>
</g>
<g id="glyph-0-5">
<path d="M 3.179688 -2.910156 C 3.179688 -1.582031 2.925781 -0.527344 2.417969 0.257812 C 1.914062 1.042969 1.214844 1.492188 0.328125 1.601562 L 0.328125 1.203125 C 0.964844 1.082031 1.445312 0.679688 1.761719 -0.0078125 C 2.082031 -0.695312 2.242188 -1.660156 2.242188 -2.898438 C 2.242188 -4.203125 2.078125 -5.195312 1.753906 -5.878906 C 1.425781 -6.5625 0.953125 -6.960938 0.328125 -7.074219 L 0.328125 -7.480469 C 1.214844 -7.363281 1.914062 -6.910156 2.417969 -6.121094 C 2.925781 -5.332031 3.179688 -4.261719 3.179688 -2.910156 Z "/>
</g>
</g>
</defs>
<g fill="rgb(100%, 100%, 100%)" fill-opacity="1">
<use xlink:href="#glyph-0-0" x="30" y="29.169922"/>
<use xlink:href="#glyph-0-1" x="34" y="29.169922"/>
<use xlink:href="#glyph-0-2" x="37" y="29.169922"/>
<use xlink:href="#glyph-0-3" x="43" y="29.169922"/>
<use xlink:href="#glyph-0-4" x="47" y="29.169922"/>
<use xlink:href="#glyph-0-5" x="52" y="29.169922"/>
</g>
</svg>
