<?xml version="1.0" encoding="UTF-8"?>
<svg xmlns="http://www.w3.org/2000/svg" xmlns:xlink="http://www.w3.org/1999/xlink" width="854" height="480" viewBox="0 0 854 480">
<defs>
<g>
<g id="glyph-0-0">
<path d="M 3.460938 1.609375 L 2.964844 1.609375 L 0.339844 -5.785156 L 0.839844 -5.785156 Z "/>
</g>
<g id="glyph-0-1">
<path d="M 2.746094 -1.835938 C 2.847656 -1.742188 2.929688 -1.636719 2.984375 -1.519531 C 3.039062 -1.398438 3.070312 -1.253906 3.070312 -1.082031 C 3.070312 -0.734375 2.9375 -0.453125 2.679688 -0.230469 C 2.417969 -0.0117188 2.082031 0.0976562 1.671875 0.0976562 C 1.453125 0.0976562 1.253906 0.0585938 1.070312 -0.0195312 C 0.886719 -0.0976562 0.753906 -0.167969 0.675781 -0.234375 L 0.601562 0.0117188 L 0.316406 0.0117188 L 0.277344 -1.292969 L 0.539062 -1.292969 C 0.558594 -1.191406 0.601562 -1.078125 0.667969 -0.945312 C 0.734375 -0.8125 0.8125 -0.691406 0.90625 -0.585938 C 1.007812 -0.472656 1.125 -0.378906 1.261719 -0.304688 C 1.402344 -0.226562 1.554688 -0.191406 1.726562 -0.191406 C 1.972656 -0.191406 2.160156 -0.246094 2.289062 -0.355469 C 2.421875 -0.46875 2.488281 -0.625 2.488281 -0.832031 C 2.488281 -0.9375 2.464844 -1.03125 2.425781 -1.105469 C 2.382812 -1.183594 2.320312 -1.25 2.242188 -1.308594 C 2.15625 -1.367188 2.054688 -1.421875 1.933594 -1.46875 C 1.8125 -1.515625 1.675781 -1.5625 1.527344 -1.605469 C 1.40625 -1.640625 1.273438 -1.691406 1.128906 -1.753906 C 0.984375 -1.816406 0.859375 -1.886719 0.753906 -1.972656 C 0.644531 -2.058594 0.554688 -2.167969 0.480469 -2.296875 C 0.410156 -2.425781 0.375 -2.578125 0.375 -2.753906 C 0.375 -3.058594 0.488281 -3.320312 0.71875 -3.53125 C 0.945312 -3.746094 1.25 -3.851562 1.632812 -3.851562 C 1.78125 -3.851562 1.929688 -3.832031 2.082031 -3.792969 C 2.234375 -3.753906 2.359375 -3.710938 2.457031 -3.65625 L 2.542969 -3.855469 L 2.816406 -3.855469 L 2.875 -2.652344 L 2.613281 -2.652344 C 2.558594 -2.921875 2.445312 -3.140625 2.269531 -3.308594 C 2.09375 -3.476562 1.878906 -3.5625 1.625 -3.5625 C 1.417969 -3.5625 1.253906 -3.511719 1.136719 -3.40625 C 1.015625 -3.300781 0.957031 -3.175781 0.957031 -3.027344 C 0.957031 -2.914062 0.976562 -2.816406 1.015625 -2.742188 C 1.054688 -2.664062 1.113281 -2.601562 1.191406 -2.546875 C 1.269531 -2.496094 1.363281 -2.449219 1.480469 -2.40625 C 1.59375 -2.363281 1.738281 -2.3125 1.90625 -2.253906 C 2.074219 -2.203125 2.230469 -2.140625 2.378906 -2.070312 C 2.527344 -2 2.648438 -1.921875 2.746094 -1.835938 Z "/>
</g>
<g id="glyph-0-2">
<path d="M 2.089844 0 L 0.28125 0 L 0.28125 -0.25 C 0.339844 -0.253906 0.398438 -0.261719 0.460938 -0.265625 C 0.523438 -0.269531 0.578125 -0.28125 0.621094 -0.296875 C 0.695312 -0.320312 0.746094 -0.359375 0.78125 -0.414062 C 0.816406 -0.472656 0.832031 -0.546875 0.832031 -0.636719 L 0.832031 -2.949219 C 0.832031 -3.027344 0.8125 -3.101562 0.777344 -3.167969 C 0.738281 -3.238281 0.6875 -3.292969 0.621094 -3.339844 C 0.574219 -3.367188 0.503906 -3.394531 0.414062 -3.414062 C 0.324219 -3.4375 0.238281 -3.449219 0.164062 -3.457031 L 0.164062 -3.707031 L 1.484375 -3.789062 L 1.539062 -3.738281 L 1.539062 -0.683594 C 1.539062 -0.59375 1.554688 -0.523438 1.589844 -0.464844 C 1.621094 -0.40625 1.675781 -0.363281 1.75 -0.335938 C 1.804688 -0.3125 1.859375 -0.292969 1.910156 -0.277344 C 1.964844 -0.265625 2.023438 -0.253906 2.089844 -0.25 L 2.089844 0 M 1.613281 -5.265625 C 1.613281 -5.121094 1.566406 -4.996094 1.472656 -4.890625 C 1.375 -4.78125 1.257812 -4.726562 1.121094 -4.726562 C 0.992188 -4.726562 0.878906 -4.777344 0.785156 -4.882812 C 0.6875 -4.984375 0.640625 -5.101562 0.640625 -5.234375 C 0.640625 -5.371094 0.6875 -5.492188 0.785156 -5.597656 C 0.878906 -5.703125 0.992188 -5.753906 1.121094 -5.753906 C 1.265625 -5.753906 1.382812 -5.703125 1.476562 -5.605469 C 1.566406 -5.507812 1.613281 -5.394531 1.613281 -5.265625 Z "/>
</g>
<g id="glyph-0-3">
<path d="M 4.410156 0 L 2.578125 0 L 2.578125 -0.25 C 2.636719 -0.253906 2.699219 -0.261719 2.769531 -0.265625 C 2.839844 -0.269531 2.898438 -0.28125 2.941406 -0.296875 C 3.015625 -0.320312 3.066406 -0.359375 3.101562 -0.414062 C 3.136719 -0.472656 3.152344 -0.546875 3.152344 -0.636719 L 3.152344 -2.5625 C 3.152344 -2.828125 3.089844 -3.035156 2.964844 -3.179688 C 2.839844 -3.324219 2.683594 -3.394531 2.503906 -3.394531 C 2.371094 -3.394531 2.246094 -3.375 2.136719 -3.332031 C 2.023438 -3.289062 1.925781 -3.238281 1.839844 -3.179688 C 1.753906 -3.121094 1.6875 -3.058594 1.640625 -2.992188 C 1.589844 -2.921875 1.554688 -2.871094 1.53125 -2.828125 L 1.53125 -0.675781 C 1.53125 -0.589844 1.546875 -0.519531 1.582031 -0.464844 C 1.617188 -0.40625 1.671875 -0.363281 1.742188 -0.335938 C 1.796875 -0.308594 1.855469 -0.289062 1.914062 -0.277344 C 1.976562 -0.265625 2.042969 -0.253906 2.109375 -0.25 L 2.109375 0 L 0.273438 0 L 0.273438 -0.25 C 0.332031 -0.253906 0.390625 -0.261719 0.453125 -0.265625 C 0.515625 -0.269531 0.570312 -0.28125 0.613281 -0.296875 C 0.6875 -0.320312 0.738281 -0.359375 0.773438 -0.414062 C 0.808594 -0.472656 0.824219 -0.546875 0.824219 -0.636719 L 0.824219 -2.949219 C 0.824219 -3.035156 0.804688 -3.113281 0.769531 -3.183594 C 0.730469 -3.257812 0.679688 -3.316406 0.613281 -3.359375 C 0.566406 -3.390625 0.511719 -3.414062 0.445312 -3.425781 C 0.378906 -3.441406 0.308594 -3.449219 0.230469 -3.457031 L 0.230469 -3.707031 L 1.476562 -3.789062 L 1.53125 -3.738281 L 1.53125 -3.207031 L 1.550781 -3.207031 C 1.609375 -3.269531 1.6875 -3.34375 1.777344 -3.425781 C 1.867188 -3.511719 1.953125 -3.582031 2.035156 -3.632812 C 2.128906 -3.695312 2.242188 -3.746094 2.371094 -3.785156 C 2.5 -3.828125 2.644531 -3.847656 2.804688 -3.847656 C 3.164062 -3.847656 3.433594 -3.734375 3.605469 -3.511719 C 3.777344 -3.285156 3.867188 -2.988281 3.867188 -2.617188 L 3.867188 -0.667969 C 3.867188 -0.578125 3.882812 -0.507812 3.910156 -0.453125 C 3.941406 -0.398438 3.992188 -0.355469 4.066406 -0.328125 C 4.128906 -0.300781 4.179688 -0.285156 4.226562 -0.273438 C 4.269531 -0.261719 4.332031 -0.253906 4.410156 -0.25 Z "/>
</g>
<g id="glyph-0-4">
<path d="M 2.660156 1.246094 C 1.972656 1.160156 1.429688 0.8125 1.035156 0.203125 C 0.640625 -0.410156 0.445312 -1.230469 0.445312 -2.261719 C 0.445312 -3.3125 0.640625 -4.144531 1.035156 -4.761719 C 1.429688 -5.375 1.972656 -5.726562 2.660156 -5.816406 L 2.660156 -5.503906 C 2.175781 -5.414062 1.804688 -5.105469 1.554688 -4.570312 C 1.300781 -4.039062 1.171875 -3.269531 1.171875 -2.253906 C 1.171875 -1.292969 1.296875 -0.542969 1.546875 -0.00390625 C 1.792969 0.53125 2.164062 0.84375 2.660156 0.933594 Z "/>
</g>
<g id="glyph-0-5">
<path d="M 3.882812 0 L 2.164062 0 L 2.164062 -0.25 C 2.277344 -0.261719 2.375 -0.277344 2.457031 -0.289062 C 2.535156 -0.300781 2.574219 -0.335938 2.574219 -0.386719 C 2.574219 -0.410156 2.5625 -0.445312 2.539062 -0.492188 C 2.511719 -0.542969 2.488281 -0.585938 2.460938 -0.625 C 2.398438 -0.726562 2.3125 -0.859375 2.203125 -1.023438 C 2.089844 -1.191406 1.957031 -1.386719 1.796875 -1.617188 C 1.664062 -1.453125 1.542969 -1.292969 1.429688 -1.136719 C 1.320312 -0.980469 1.203125 -0.816406 1.082031 -0.640625 C 1.0625 -0.617188 1.046875 -0.585938 1.027344 -0.546875 C 1.007812 -0.507812 0.996094 -0.476562 0.996094 -0.457031 C 0.996094 -0.398438 1.035156 -0.355469 1.105469 -0.316406 C 1.179688 -0.28125 1.285156 -0.253906 1.433594 -0.242188 L 1.433594 0 L 0.046875 0 L 0.046875 -0.234375 C 0.21875 -0.285156 0.355469 -0.347656 0.460938 -0.417969 C 0.566406 -0.492188 0.664062 -0.582031 0.75 -0.6875 C 0.832031 -0.789062 0.941406 -0.929688 1.082031 -1.105469 C 1.222656 -1.285156 1.402344 -1.527344 1.625 -1.832031 C 1.496094 -2.015625 1.339844 -2.242188 1.152344 -2.507812 C 0.96875 -2.773438 0.8125 -2.996094 0.691406 -3.171875 C 0.625 -3.265625 0.550781 -3.34375 0.464844 -3.40625 C 0.378906 -3.464844 0.261719 -3.492188 0.105469 -3.492188 L 0.105469 -3.746094 L 1.734375 -3.746094 L 1.734375 -3.492188 C 1.65625 -3.492188 1.574219 -3.488281 1.496094 -3.480469 C 1.417969 -3.46875 1.378906 -3.445312 1.378906 -3.410156 C 1.378906 -3.386719 1.386719 -3.363281 1.402344 -3.335938 C 1.417969 -3.304688 1.4375 -3.277344 1.460938 -3.242188 C 1.515625 -3.15625 1.601562 -3.023438 1.71875 -2.84375 C 1.835938 -2.664062 1.964844 -2.476562 2.101562 -2.273438 C 2.1875 -2.394531 2.292969 -2.539062 2.410156 -2.699219 C 2.527344 -2.863281 2.636719 -3.015625 2.734375 -3.164062 C 2.746094 -3.179688 2.753906 -3.203125 2.765625 -3.230469 C 2.777344 -3.257812 2.78125 -3.28125 2.78125 -3.308594 C 2.78125 -3.359375 2.738281 -3.402344 2.648438 -3.433594 C 2.5625 -3.464844 2.480469 -3.488281 2.398438 -3.5 L 2.398438 -3.746094 L 3.78125 -3.746094 L 3.78125 -3.507812 C 3.585938 -3.457031 3.433594 -3.398438 3.328125 -3.328125 C 3.21875 -3.257812 3.125 -3.179688 3.050781 -3.085938 C 2.964844 -2.984375 2.867188 -2.855469 2.75 -2.703125 C 2.636719 -2.550781 2.476562 -2.339844 2.269531 -2.066406 C 2.496094 -1.742188 2.683594 -1.476562 2.828125 -1.269531 C 2.972656 -1.0625 3.117188 -0.847656 3.265625 -0.625 C 3.339844 -0.515625 3.421875 -0.425781 3.511719 -0.363281 C 3.601562 -0.296875 3.722656 -0.261719 3.882812 -0.25 Z "/>
</g>
<g id="glyph-0-6">
<path d="M 2.472656 -2.261719 C 2.472656 -1.230469 2.273438 -0.410156 1.882812 0.203125 C 1.488281 0.8125 0.945312 1.160156 0.253906 1.246094 L 0.253906 0.933594 C 0.75 0.84375 1.121094 0.53125 1.371094 -0.00390625 C 1.617188 -0.542969 1.742188 -1.292969 1.742188 -2.253906 C 1.742188 -3.269531 1.617188 -4.039062 1.363281 -4.570312 C 1.109375 -5.105469 0.742188 -5.414062 0.253906 -5.503906 L 0.253906 -5.816406 C 0.945312 -5.726562 1.488281 -5.375 1.882812 -4.761719 C 2.273438 -4.144531 2.472656 -3.3125 2.472656 -2.261719 Z "/>
</g>
</g>
</defs>
<g fill="rgb(100%, 100%, 100%)" fill-opacity="1">
<use xlink:href="#glyph-0-0" x="30" y="27.131836"/>
<use xlink:href="#glyph-0-1" x="34" y="27.131836"/>
<use xlink:href="#glyph-0-2" x="37" y="27.131836"/>
<use xlink:href="#glyph-0-3" x="39" y="27.131836"/>
<use xlink:href="#glyph-0-4" x="44" y="27.131836"/>
<use xlink:href="#glyph-0-5" x="47" y="27.131836"/>
<use xlink:href="#glyph-0-6" x="51" y="27.131836"/>
</g>
</svg>
